# xmcd
#
# Track frame offsets:
#	150
#	10932
#	24017
#	38935
#	50610
#	61020
#	75535
#	87312
#	98607
#	110495
#	121917
#	135380
#
# Disc length: 1972 seconds
#
# Revision: 0
# Processed by: cddbd v1.4PL0 Copyright (c) Steve Scherf et al.
# Submitted via: dBpowerAMP V4.0
#
DISCID=8507b20c
DTITLE=Elmore James - Elmore James: The Blues Collection
DYEAR=1900
DGENRE=Blues
TTITLE0=Coming Home
TTITLE1=Dust My Broom
TTITLE2=Everyday I Have the Blues
TTITLE3=Fine Little Mama
TTITLE4=I Done Somebody Wrong
TTITLE5=It Hurts Me Too
TTITLE6=Pickin' The Blues
TTITLE7=Look On Yonder Wall
TTITLE8=Mean Mistreating Mama
TTITLE9=Rolling and Tumbling
TTITLE10=Standing At The Crossroads
TTITLE11=The Sky Is Crying
EXTD=
EXTT0=
EXTT1=
EXTT2=
EXTT3=
EXTT4=
EXTT5=
EXTT6=
EXTT7=
EXTT8=
EXTT9=
EXTT10=
EXTT11=
PLAYORDER=
